<?xml version="1.0" encoding="UTF-8"?><svg xmlns="http://www.w3.org/2000/svg" xmlns:xlink="http://www.w3.org/1999/xlink" fill-opacity="1" color-rendering="auto" color-interpolation="auto" text-rendering="auto" stroke="black" stroke-linecap="square" width="1461" stroke-miterlimit="10" shape-rendering="auto" stroke-opacity="1" fill="black" stroke-dasharray="none" font-weight="normal" stroke-width="1" height="1458" font-family="'Dialog'" font-style="normal" stroke-linejoin="miter" font-size="12px" stroke-dashoffset="0" image-rendering="auto">
  <!--Generated by ySVG 2.6-->
  <defs id="genericDefs"/>
  <g>
    <defs id="defs1">
      <clipPath clipPathUnits="userSpaceOnUse" id="clipPath1">
        <path d="M0 0 L1461 0 L1461 1458 L0 1458 L0 0 Z"/>
      </clipPath>
      <clipPath clipPathUnits="userSpaceOnUse" id="clipPath2">
        <path d="M-139 -8 L1322 -8 L1322 1450 L-139 1450 L-139 -8 Z"/>
      </clipPath>
    </defs>
    <g text-rendering="geometricPrecision" stroke-miterlimit="1.45" shape-rendering="geometricPrecision" transform="matrix(1,0,0,1,139,8)" stroke-linecap="butt">
      <rect fill="none" x="403" width="143" height="30" y="267" clip-path="url(#clipPath2)"/>
    </g>
    <g text-rendering="geometricPrecision" stroke-miterlimit="1.45" shape-rendering="geometricPrecision" font-family="sans-serif" transform="matrix(1,0,0,1,139,8)" stroke-linecap="butt">
      <text x="433.8154" xml:space="preserve" y="286.1543" clip-path="url(#clipPath2)" stroke="none">MARC header</text>
      <rect fill="none" x="546" width="143" height="30" y="267" clip-path="url(#clipPath2)"/>
      <text x="571.2959" xml:space="preserve" y="286.1543" clip-path="url(#clipPath2)" stroke="none">Number of tiles</text>
      <rect fill="none" x="689" width="143" height="30" y="267" clip-path="url(#clipPath2)"/>
      <text x="698.1797" xml:space="preserve" y="286.1543" clip-path="url(#clipPath2)" stroke="none">Tile properties offset</text>
      <rect fill="none" x="832" width="143" height="30" y="267" clip-path="url(#clipPath2)"/>
      <text x="871.8652" xml:space="preserve" y="286.1543" clip-path="url(#clipPath2)" stroke="none">Map offset</text>
      <rect fill="none" x="403" width="143" height="30" y="897" clip-path="url(#clipPath2)"/>
      <text x="435.1045" xml:space="preserve" y="916.1543" clip-path="url(#clipPath2)" stroke="none">MAPF header</text>
      <rect fill="none" x="546" width="143" height="30" y="897" clip-path="url(#clipPath2)"/>
      <text x="586.3926" xml:space="preserve" y="916.1543" clip-path="url(#clipPath2)" stroke="none">Map width</text>
      <rect fill="none" x="689" width="143" height="30" y="897" clip-path="url(#clipPath2)"/>
      <text x="726.8057" xml:space="preserve" y="916.1543" clip-path="url(#clipPath2)" stroke="none">Map height</text>
      <rect fill="none" x="832" width="143" height="30" y="897" clip-path="url(#clipPath2)"/>
      <text x="877.2969" xml:space="preserve" y="916.1543" clip-path="url(#clipPath2)" stroke="none">Map size</text>
      <rect fill="none" x="403" width="572" height="120" y="297" clip-path="url(#clipPath2)"/>
      <text x="657.0371" xml:space="preserve" y="361.1543" clip-path="url(#clipPath2)" stroke="none">Tile path 1</text>
      <rect fill="none" x="403" width="572" height="120" y="417" clip-path="url(#clipPath2)"/>
      <text x="657.0371" xml:space="preserve" y="481.1543" clip-path="url(#clipPath2)" stroke="none">Tile path 2</text>
      <rect fill="none" x="403" width="572" height="30" y="537" clip-path="url(#clipPath2)"/>
      <text x="683.2783" xml:space="preserve" y="556.1543" clip-path="url(#clipPath2)" stroke="none">...</text>
      <rect fill="none" x="403" width="572" height="120" y="567" clip-path="url(#clipPath2)"/>
      <text x="656.3662" xml:space="preserve" y="631.1543" clip-path="url(#clipPath2)" stroke="none">Tile path N</text>
      <rect fill="none" x="403" width="143" height="30" y="687" clip-path="url(#clipPath2)"/>
      <text x="420.8955" xml:space="preserve" y="706.1543" clip-path="url(#clipPath2)" stroke="none">Properties header</text>
      <rect fill="none" x="546" width="143" height="30" y="687" clip-path="url(#clipPath2)"/>
      <text x="566.6904" xml:space="preserve" y="706.1543" clip-path="url(#clipPath2)" stroke="none">Numer of frames</text>
      <rect fill="none" x="689" width="143" height="30" y="687" clip-path="url(#clipPath2)"/>
      <text x="738.3076" xml:space="preserve" y="706.1543" clip-path="url(#clipPath2)" stroke="none">Solidity</text>
      <rect fill="none" x="832" width="143" height="30" y="687" clip-path="url(#clipPath2)"/>
      <text x="866.9551" xml:space="preserve" y="706.1543" clip-path="url(#clipPath2)" stroke="none">Destructible</text>
      <rect fill="none" x="403" width="143" height="30" y="717" clip-path="url(#clipPath2)"/>
      <text x="443.1289" xml:space="preserve" y="736.1543" clip-path="url(#clipPath2)" stroke="none">Collectible</text>
      <rect fill="none" x="546" width="143" height="30" y="717" clip-path="url(#clipPath2)"/>
      <text x="587.0312" xml:space="preserve" y="736.1543" clip-path="url(#clipPath2)" stroke="none">Generator</text>
      <rect fill="none" x="689" width="286" height="30" y="717" clip-path="url(#clipPath2)"/>
      <text x="807.8096" xml:space="preserve" y="736.1543" clip-path="url(#clipPath2)" stroke="none">Padding</text>
      <rect fill="none" x="403" width="143" height="30" y="747" clip-path="url(#clipPath2)"/>
      <text x="420.8955" xml:space="preserve" y="766.1543" clip-path="url(#clipPath2)" stroke="none">Properties header</text>
      <rect fill="none" x="546" width="143" height="30" y="747" clip-path="url(#clipPath2)"/>
      <text x="566.6904" xml:space="preserve" y="766.1543" clip-path="url(#clipPath2)" stroke="none">Numer of frames</text>
      <rect fill="none" x="689" width="143" height="30" y="747" clip-path="url(#clipPath2)"/>
      <text x="738.3076" xml:space="preserve" y="766.1543" clip-path="url(#clipPath2)" stroke="none">Solidity</text>
      <rect fill="none" x="832" width="143" height="30" y="747" clip-path="url(#clipPath2)"/>
      <text x="866.9551" xml:space="preserve" y="766.1543" clip-path="url(#clipPath2)" stroke="none">Destructible</text>
      <rect fill="none" x="403" width="143" height="30" y="777" clip-path="url(#clipPath2)"/>
      <text x="443.1289" xml:space="preserve" y="796.1543" clip-path="url(#clipPath2)" stroke="none">Collectible</text>
      <rect fill="none" x="546" width="143" height="30" y="777" clip-path="url(#clipPath2)"/>
      <text x="587.0312" xml:space="preserve" y="796.1543" clip-path="url(#clipPath2)" stroke="none">Generator</text>
      <rect fill="none" x="689" width="286" height="30" y="777" clip-path="url(#clipPath2)"/>
      <text x="807.8096" xml:space="preserve" y="796.1543" clip-path="url(#clipPath2)" stroke="none">Padding</text>
      <rect fill="none" x="403" width="572" height="30" y="807" clip-path="url(#clipPath2)"/>
      <text x="683.2783" xml:space="preserve" y="826.1543" clip-path="url(#clipPath2)" stroke="none">...</text>
      <rect fill="none" x="403" width="143" height="30" y="837" clip-path="url(#clipPath2)"/>
      <text x="420.8955" xml:space="preserve" y="856.1543" clip-path="url(#clipPath2)" stroke="none">Properties header</text>
      <rect fill="none" x="546" width="143" height="30" y="837" clip-path="url(#clipPath2)"/>
      <text x="566.6904" xml:space="preserve" y="856.1543" clip-path="url(#clipPath2)" stroke="none">Numer of frames</text>
      <rect fill="none" x="689" width="143" height="30" y="837" clip-path="url(#clipPath2)"/>
      <text x="738.3076" xml:space="preserve" y="856.1543" clip-path="url(#clipPath2)" stroke="none">Solidity</text>
      <rect fill="none" x="832" width="143" height="30" y="837" clip-path="url(#clipPath2)"/>
      <text x="866.9551" xml:space="preserve" y="856.1543" clip-path="url(#clipPath2)" stroke="none">Destructible</text>
      <rect fill="none" x="403" width="143" height="30" y="867" clip-path="url(#clipPath2)"/>
      <text x="443.1289" xml:space="preserve" y="886.1543" clip-path="url(#clipPath2)" stroke="none">Collectible</text>
      <rect fill="none" x="546" width="143" height="30" y="867" clip-path="url(#clipPath2)"/>
      <text x="587.0312" xml:space="preserve" y="886.1543" clip-path="url(#clipPath2)" stroke="none">Generator</text>
      <rect fill="none" x="689" width="286" height="30" y="867" clip-path="url(#clipPath2)"/>
      <text x="807.8096" xml:space="preserve" y="886.1543" clip-path="url(#clipPath2)" stroke="none">Padding</text>
      <rect fill="none" x="403" width="572" height="507.3333" y="927" clip-path="url(#clipPath2)"/>
      <text x="660.916" xml:space="preserve" y="1184.8209" clip-path="url(#clipPath2)" stroke="none">Map data</text>
    </g>
    <g fill="rgb(255,204,0)" text-rendering="geometricPrecision" shape-rendering="geometricPrecision" transform="matrix(1,0,0,1,139,8)" stroke="rgb(255,204,0)">
      <rect x="689" width="1" height="30" y="207" clip-path="url(#clipPath2)" stroke="none"/>
    </g>
    <g text-rendering="geometricPrecision" stroke-miterlimit="1.45" shape-rendering="geometricPrecision" transform="matrix(1,0,0,1,139,8)" stroke-linecap="butt">
      <rect fill="none" x="689" width="1" height="30" y="207" clip-path="url(#clipPath2)"/>
    </g>
    <g fill="rgb(255,204,0)" text-rendering="geometricPrecision" shape-rendering="geometricPrecision" transform="matrix(1,0,0,1,139,8)" stroke="rgb(255,204,0)">
      <rect x="831" width="1" height="30" y="207" clip-path="url(#clipPath2)" stroke="none"/>
    </g>
    <g text-rendering="geometricPrecision" stroke-miterlimit="1.45" shape-rendering="geometricPrecision" transform="matrix(1,0,0,1,139,8)" stroke-linecap="butt">
      <rect fill="none" x="831" width="1" height="30" y="207" clip-path="url(#clipPath2)"/>
    </g>
    <g fill="rgb(255,204,0)" text-rendering="geometricPrecision" shape-rendering="geometricPrecision" transform="matrix(1,0,0,1,139,8)" stroke="rgb(255,204,0)">
      <rect x="690" width="141" height="1" y="221.5" clip-path="url(#clipPath2)" stroke="none"/>
    </g>
    <g text-rendering="geometricPrecision" stroke-miterlimit="1.45" shape-rendering="geometricPrecision" transform="matrix(1,0,0,1,139,8)" stroke-linecap="butt">
      <rect fill="none" x="690" width="141" height="1" y="221.5" clip-path="url(#clipPath2)"/>
    </g>
    <g fill="rgb(255,204,0)" text-rendering="geometricPrecision" shape-rendering="geometricPrecision" transform="matrix(1,0,0,1,139,8)" stroke="rgb(255,204,0)">
      <rect x="974" width="1" height="30" y="207" clip-path="url(#clipPath2)" stroke="none"/>
    </g>
    <g text-rendering="geometricPrecision" stroke-miterlimit="1.45" shape-rendering="geometricPrecision" transform="matrix(1,0,0,1,139,8)" stroke-linecap="butt">
      <rect fill="none" x="974" width="1" height="30" y="207" clip-path="url(#clipPath2)"/>
    </g>
    <g fill="rgb(255,204,0)" text-rendering="geometricPrecision" shape-rendering="geometricPrecision" transform="matrix(1,0,0,1,139,8)" stroke="rgb(255,204,0)">
      <rect x="831" width="144" height="1" y="221.5" clip-path="url(#clipPath2)" stroke="none"/>
    </g>
    <g text-rendering="geometricPrecision" stroke-miterlimit="1.45" shape-rendering="geometricPrecision" transform="matrix(1,0,0,1,139,8)" stroke-linecap="butt">
      <rect fill="none" x="831" width="144" height="1" y="221.5" clip-path="url(#clipPath2)"/>
    </g>
    <g fill="rgb(255,204,0)" text-rendering="geometricPrecision" shape-rendering="geometricPrecision" transform="matrix(1,0,0,1,139,8)" stroke="rgb(255,204,0)">
      <rect x="343" width="30" height="1" y="686" clip-path="url(#clipPath2)" stroke="none"/>
    </g>
    <g text-rendering="geometricPrecision" stroke-miterlimit="1.45" shape-rendering="geometricPrecision" transform="matrix(1,0,0,1,139,8)" stroke-linecap="butt">
      <rect fill="none" x="343" width="30" height="1" y="686" clip-path="url(#clipPath2)"/>
    </g>
    <g fill="rgb(255,204,0)" text-rendering="geometricPrecision" shape-rendering="geometricPrecision" transform="matrix(1,0,0,1,139,8)" stroke="rgb(255,204,0)">
      <rect x="343" width="30" height="1" y="717" clip-path="url(#clipPath2)" stroke="none"/>
    </g>
    <g text-rendering="geometricPrecision" stroke-miterlimit="1.45" shape-rendering="geometricPrecision" transform="matrix(1,0,0,1,139,8)" stroke-linecap="butt">
      <rect fill="none" x="343" width="30" height="1" y="717" clip-path="url(#clipPath2)"/>
    </g>
    <g fill="rgb(255,204,0)" text-rendering="geometricPrecision" shape-rendering="geometricPrecision" transform="matrix(1,0,0,1,139,8)" stroke="rgb(255,204,0)">
      <rect x="357.5" width="1" height="30" y="687" clip-path="url(#clipPath2)" stroke="none"/>
    </g>
    <g text-rendering="geometricPrecision" stroke-miterlimit="1.45" shape-rendering="geometricPrecision" transform="matrix(1,0,0,1,139,8)" stroke-linecap="butt">
      <rect fill="none" x="357.5" width="1" height="30" y="687" clip-path="url(#clipPath2)"/>
    </g>
    <g fill="rgb(255,204,0)" text-rendering="geometricPrecision" shape-rendering="geometricPrecision" transform="matrix(1,0,0,1,139,8)" stroke="rgb(255,204,0)">
      <rect x="343" width="30" height="1" y="927" clip-path="url(#clipPath2)" stroke="none"/>
    </g>
    <g text-rendering="geometricPrecision" stroke-miterlimit="1.45" shape-rendering="geometricPrecision" transform="matrix(1,0,0,1,139,8)" stroke-linecap="butt">
      <rect fill="none" x="343" width="30" height="1" y="927" clip-path="url(#clipPath2)"/>
    </g>
    <g fill="rgb(255,204,0)" text-rendering="geometricPrecision" shape-rendering="geometricPrecision" transform="matrix(1,0,0,1,139,8)" stroke="rgb(255,204,0)">
      <rect x="343" width="30" height="1" y="896" clip-path="url(#clipPath2)" stroke="none"/>
    </g>
    <g text-rendering="geometricPrecision" stroke-miterlimit="1.45" shape-rendering="geometricPrecision" transform="matrix(1,0,0,1,139,8)" stroke-linecap="butt">
      <rect fill="none" x="343" width="30" height="1" y="896" clip-path="url(#clipPath2)"/>
    </g>
    <g fill="rgb(255,204,0)" text-rendering="geometricPrecision" shape-rendering="geometricPrecision" transform="matrix(1,0,0,1,139,8)" stroke="rgb(255,204,0)">
      <rect x="357.5" width="1" height="30" y="897" clip-path="url(#clipPath2)" stroke="none"/>
    </g>
    <g text-rendering="geometricPrecision" stroke-miterlimit="1.45" shape-rendering="geometricPrecision" transform="matrix(1,0,0,1,139,8)" stroke-linecap="butt">
      <rect fill="none" x="357.5" width="1" height="30" y="897" clip-path="url(#clipPath2)"/>
    </g>
    <g fill="rgb(255,204,0)" text-rendering="geometricPrecision" shape-rendering="geometricPrecision" transform="matrix(1,0,0,1,139,8)" stroke="rgb(255,204,0)">
      <rect x="1005" width="30" height="1" y="297" clip-path="url(#clipPath2)" stroke="none"/>
    </g>
    <g text-rendering="geometricPrecision" stroke-miterlimit="1.45" shape-rendering="geometricPrecision" transform="matrix(1,0,0,1,139,8)" stroke-linecap="butt">
      <rect fill="none" x="1005" width="30" height="1" y="297" clip-path="url(#clipPath2)"/>
    </g>
    <g fill="rgb(255,204,0)" text-rendering="geometricPrecision" shape-rendering="geometricPrecision" transform="matrix(1,0,0,1,139,8)" stroke="rgb(255,204,0)">
      <rect x="1005" width="30" height="1" y="416" clip-path="url(#clipPath2)" stroke="none"/>
    </g>
    <g text-rendering="geometricPrecision" stroke-miterlimit="1.45" shape-rendering="geometricPrecision" transform="matrix(1,0,0,1,139,8)" stroke-linecap="butt">
      <rect fill="none" x="1005" width="30" height="1" y="416" clip-path="url(#clipPath2)"/>
    </g>
    <g fill="rgb(255,204,0)" text-rendering="geometricPrecision" shape-rendering="geometricPrecision" transform="matrix(1,0,0,1,139,8)" stroke="rgb(255,204,0)">
      <rect x="1005" width="30" height="1" y="536" clip-path="url(#clipPath2)" stroke="none"/>
    </g>
    <g text-rendering="geometricPrecision" stroke-miterlimit="1.45" shape-rendering="geometricPrecision" transform="matrix(1,0,0,1,139,8)" stroke-linecap="butt">
      <rect fill="none" x="1005" width="30" height="1" y="536" clip-path="url(#clipPath2)"/>
    </g>
    <g fill="rgb(255,204,0)" text-rendering="geometricPrecision" shape-rendering="geometricPrecision" transform="matrix(1,0,0,1,139,8)" stroke="rgb(255,204,0)">
      <rect x="1005" width="30" height="1" y="567" clip-path="url(#clipPath2)" stroke="none"/>
    </g>
    <g text-rendering="geometricPrecision" stroke-miterlimit="1.45" shape-rendering="geometricPrecision" transform="matrix(1,0,0,1,139,8)" stroke-linecap="butt">
      <rect fill="none" x="1005" width="30" height="1" y="567" clip-path="url(#clipPath2)"/>
    </g>
    <g fill="rgb(255,204,0)" text-rendering="geometricPrecision" shape-rendering="geometricPrecision" transform="matrix(1,0,0,1,139,8)" stroke="rgb(255,204,0)">
      <rect x="1005" width="30" height="1" y="686" clip-path="url(#clipPath2)" stroke="none"/>
    </g>
    <g text-rendering="geometricPrecision" stroke-miterlimit="1.45" shape-rendering="geometricPrecision" transform="matrix(1,0,0,1,139,8)" stroke-linecap="butt">
      <rect fill="none" x="1005" width="30" height="1" y="686" clip-path="url(#clipPath2)"/>
    </g>
    <g fill="rgb(255,204,0)" text-rendering="geometricPrecision" shape-rendering="geometricPrecision" transform="matrix(1,0,0,1,139,8)" stroke="rgb(255,204,0)">
      <rect x="1019.5" width="1" height="118" y="298" clip-path="url(#clipPath2)" stroke="none"/>
    </g>
    <g text-rendering="geometricPrecision" stroke-miterlimit="1.45" shape-rendering="geometricPrecision" transform="matrix(1,0,0,1,139,8)" stroke-linecap="butt">
      <rect fill="none" x="1019.5" width="1" height="118" y="298" clip-path="url(#clipPath2)"/>
    </g>
    <g fill="rgb(255,204,0)" text-rendering="geometricPrecision" shape-rendering="geometricPrecision" transform="matrix(1,0,0,1,139,8)" stroke="rgb(255,204,0)">
      <rect x="1019.5" width="1" height="118" y="417" clip-path="url(#clipPath2)" stroke="none"/>
    </g>
    <g text-rendering="geometricPrecision" stroke-miterlimit="1.45" shape-rendering="geometricPrecision" transform="matrix(1,0,0,1,139,8)" stroke-linecap="butt">
      <rect fill="none" x="1019.5" width="1" height="118" y="417" clip-path="url(#clipPath2)"/>
    </g>
    <g fill="rgb(255,204,0)" text-rendering="geometricPrecision" shape-rendering="geometricPrecision" transform="matrix(1,0,0,1,139,8)" stroke="rgb(255,204,0)">
      <rect x="1019.5" width="1" height="118" y="568" clip-path="url(#clipPath2)" stroke="none"/>
    </g>
    <g text-rendering="geometricPrecision" stroke-miterlimit="1.45" shape-rendering="geometricPrecision" transform="matrix(1,0,0,1,139,8)" stroke-linecap="butt">
      <rect fill="none" x="1019.5" width="1" height="118" y="568" clip-path="url(#clipPath2)"/>
    </g>
    <g fill="rgb(255,204,0)" text-rendering="geometricPrecision" shape-rendering="geometricPrecision" transform="matrix(1,0,0,1,139,8)" stroke="rgb(255,204,0)">
      <rect x="1005" width="30" height="1" y="747" clip-path="url(#clipPath2)" stroke="none"/>
    </g>
    <g text-rendering="geometricPrecision" stroke-miterlimit="1.45" shape-rendering="geometricPrecision" transform="matrix(1,0,0,1,139,8)" stroke-linecap="butt">
      <rect fill="none" x="1005" width="30" height="1" y="747" clip-path="url(#clipPath2)"/>
    </g>
    <g fill="rgb(255,204,0)" text-rendering="geometricPrecision" shape-rendering="geometricPrecision" transform="matrix(1,0,0,1,139,8)" stroke="rgb(255,204,0)">
      <rect x="1005" width="30" height="1" y="807" clip-path="url(#clipPath2)" stroke="none"/>
    </g>
    <g text-rendering="geometricPrecision" stroke-miterlimit="1.45" shape-rendering="geometricPrecision" transform="matrix(1,0,0,1,139,8)" stroke-linecap="butt">
      <rect fill="none" x="1005" width="30" height="1" y="807" clip-path="url(#clipPath2)"/>
    </g>
    <g fill="rgb(255,204,0)" text-rendering="geometricPrecision" shape-rendering="geometricPrecision" transform="matrix(1,0,0,1,139,8)" stroke="rgb(255,204,0)">
      <rect x="1005" width="30" height="1" y="838" clip-path="url(#clipPath2)" stroke="none"/>
    </g>
    <g text-rendering="geometricPrecision" stroke-miterlimit="1.45" shape-rendering="geometricPrecision" transform="matrix(1,0,0,1,139,8)" stroke-linecap="butt">
      <rect fill="none" x="1005" width="30" height="1" y="838" clip-path="url(#clipPath2)"/>
    </g>
    <g fill="rgb(255,204,0)" text-rendering="geometricPrecision" shape-rendering="geometricPrecision" transform="matrix(1,0,0,1,139,8)" stroke="rgb(255,204,0)">
      <rect x="1005" width="30" height="1" y="896" clip-path="url(#clipPath2)" stroke="none"/>
    </g>
    <g text-rendering="geometricPrecision" stroke-miterlimit="1.45" shape-rendering="geometricPrecision" transform="matrix(1,0,0,1,139,8)" stroke-linecap="butt">
      <rect fill="none" x="1005" width="30" height="1" y="896" clip-path="url(#clipPath2)"/>
    </g>
    <g fill="rgb(255,204,0)" text-rendering="geometricPrecision" shape-rendering="geometricPrecision" transform="matrix(1,0,0,1,139,8)" stroke="rgb(255,204,0)">
      <rect x="1019.5" width="1" height="60" y="687" clip-path="url(#clipPath2)" stroke="none"/>
    </g>
    <g text-rendering="geometricPrecision" stroke-miterlimit="1.45" shape-rendering="geometricPrecision" transform="matrix(1,0,0,1,139,8)" stroke-linecap="butt">
      <rect fill="none" x="1019.5" width="1" height="60" y="687" clip-path="url(#clipPath2)"/>
    </g>
    <g fill="rgb(255,204,0)" text-rendering="geometricPrecision" shape-rendering="geometricPrecision" transform="matrix(1,0,0,1,139,8)" stroke="rgb(255,204,0)">
      <rect x="1019.5" width="1" height="59" y="748" clip-path="url(#clipPath2)" stroke="none"/>
    </g>
    <g text-rendering="geometricPrecision" stroke-miterlimit="1.45" shape-rendering="geometricPrecision" transform="matrix(1,0,0,1,139,8)" stroke-linecap="butt">
      <rect fill="none" x="1019.5" width="1" height="59" y="748" clip-path="url(#clipPath2)"/>
    </g>
    <g fill="rgb(255,204,0)" text-rendering="geometricPrecision" shape-rendering="geometricPrecision" transform="matrix(1,0,0,1,139,8)" stroke="rgb(255,204,0)">
      <rect x="1019.5" width="1" height="57" y="839" clip-path="url(#clipPath2)" stroke="none"/>
    </g>
    <g text-rendering="geometricPrecision" stroke-miterlimit="1.45" shape-rendering="geometricPrecision" transform="matrix(1,0,0,1,139,8)" stroke-linecap="butt">
      <rect fill="none" x="1019.5" width="1" height="57" y="839" clip-path="url(#clipPath2)"/>
    </g>
    <g fill="rgb(255,204,0)" text-rendering="geometricPrecision" shape-rendering="geometricPrecision" transform="matrix(1,0,0,1,139,8)" stroke="rgb(255,204,0)">
      <rect x="343" width="30" height="1" y="296" clip-path="url(#clipPath2)" stroke="none"/>
    </g>
    <g text-rendering="geometricPrecision" stroke-miterlimit="1.45" shape-rendering="geometricPrecision" transform="matrix(1,0,0,1,139,8)" stroke-linecap="butt">
      <rect fill="none" x="343" width="30" height="1" y="296" clip-path="url(#clipPath2)"/>
    </g>
    <g fill="rgb(255,204,0)" text-rendering="geometricPrecision" shape-rendering="geometricPrecision" transform="matrix(1,0,0,1,139,8)" stroke="rgb(255,204,0)">
      <rect x="343" width="30" height="1" y="415" clip-path="url(#clipPath2)" stroke="none"/>
    </g>
    <g text-rendering="geometricPrecision" stroke-miterlimit="1.45" shape-rendering="geometricPrecision" transform="matrix(1,0,0,1,139,8)" stroke-linecap="butt">
      <rect fill="none" x="343" width="30" height="1" y="415" clip-path="url(#clipPath2)"/>
    </g>
    <g fill="rgb(255,204,0)" text-rendering="geometricPrecision" shape-rendering="geometricPrecision" transform="matrix(1,0,0,1,139,8)" stroke="rgb(255,204,0)">
      <rect x="343" width="30" height="1" y="535" clip-path="url(#clipPath2)" stroke="none"/>
    </g>
    <g text-rendering="geometricPrecision" stroke-miterlimit="1.45" shape-rendering="geometricPrecision" transform="matrix(1,0,0,1,139,8)" stroke-linecap="butt">
      <rect fill="none" x="343" width="30" height="1" y="535" clip-path="url(#clipPath2)"/>
    </g>
    <g fill="rgb(255,204,0)" text-rendering="geometricPrecision" shape-rendering="geometricPrecision" transform="matrix(1,0,0,1,139,8)" stroke="rgb(255,204,0)">
      <rect x="343" width="30" height="1" y="566" clip-path="url(#clipPath2)" stroke="none"/>
    </g>
    <g text-rendering="geometricPrecision" stroke-miterlimit="1.45" shape-rendering="geometricPrecision" transform="matrix(1,0,0,1,139,8)" stroke-linecap="butt">
      <rect fill="none" x="343" width="30" height="1" y="566" clip-path="url(#clipPath2)"/>
    </g>
    <g fill="rgb(255,204,0)" text-rendering="geometricPrecision" shape-rendering="geometricPrecision" transform="matrix(1,0,0,1,139,8)" stroke="rgb(255,204,0)">
      <rect x="357.5" width="1" height="118" y="297" clip-path="url(#clipPath2)" stroke="none"/>
    </g>
    <g text-rendering="geometricPrecision" stroke-miterlimit="1.45" shape-rendering="geometricPrecision" transform="matrix(1,0,0,1,139,8)" stroke-linecap="butt">
      <rect fill="none" x="357.5" width="1" height="118" y="297" clip-path="url(#clipPath2)"/>
    </g>
    <g fill="rgb(255,204,0)" text-rendering="geometricPrecision" shape-rendering="geometricPrecision" transform="matrix(1,0,0,1,139,8)" stroke="rgb(255,204,0)">
      <rect x="357.5" width="1" height="118" y="416" clip-path="url(#clipPath2)" stroke="none"/>
    </g>
    <g text-rendering="geometricPrecision" stroke-miterlimit="1.45" shape-rendering="geometricPrecision" transform="matrix(1,0,0,1,139,8)" stroke-linecap="butt">
      <rect fill="none" x="357.5" width="1" height="118" y="416" clip-path="url(#clipPath2)"/>
    </g>
    <g fill="rgb(255,204,0)" text-rendering="geometricPrecision" shape-rendering="geometricPrecision" transform="matrix(1,0,0,1,139,8)" stroke="rgb(255,204,0)">
      <rect x="357.5" width="1" height="118" y="567" clip-path="url(#clipPath2)" stroke="none"/>
    </g>
    <g text-rendering="geometricPrecision" stroke-miterlimit="1.45" shape-rendering="geometricPrecision" transform="matrix(1,0,0,1,139,8)" stroke-linecap="butt">
      <rect fill="none" x="357.5" width="1" height="118" y="567" clip-path="url(#clipPath2)"/>
      <rect fill="none" x="403" width="30" height="30" y="927" clip-path="url(#clipPath2)"/>
      <text x="414.1826" xml:space="preserve" y="946.1543" clip-path="url(#clipPath2)" font-family="sans-serif" stroke="none">0</text>
      <rect fill="none" x="403" width="30" height="30" y="957" clip-path="url(#clipPath2)"/>
      <text x="414.1826" xml:space="preserve" y="976.1543" clip-path="url(#clipPath2)" font-family="sans-serif" stroke="none">1</text>
      <rect fill="none" x="403" width="30" height="30" y="987" clip-path="url(#clipPath2)"/>
      <text x="413.5117" xml:space="preserve" y="1006.1543" clip-path="url(#clipPath2)" font-family="sans-serif" stroke="none">N</text>
      <rect fill="none" x="433" width="542" height="30" y="927" clip-path="url(#clipPath2)"/>
      <text x="698.2783" xml:space="preserve" y="946.1543" clip-path="url(#clipPath2)" font-family="sans-serif" stroke="none">...</text>
      <rect fill="none" x="433" width="542" height="30" y="957" clip-path="url(#clipPath2)"/>
      <text x="698.2783" xml:space="preserve" y="976.1543" clip-path="url(#clipPath2)" font-family="sans-serif" stroke="none">...</text>
      <rect fill="none" x="433" width="542" height="30" y="987" clip-path="url(#clipPath2)"/>
      <text x="698.2783" xml:space="preserve" y="1006.1543" clip-path="url(#clipPath2)" font-family="sans-serif" stroke="none">...</text>
    </g>
    <g fill="rgb(255,204,0)" text-rendering="geometricPrecision" shape-rendering="geometricPrecision" transform="matrix(1,0,0,1,139,8)" stroke="rgb(255,204,0)">
      <rect x="343" width="30" height="1" y="957" clip-path="url(#clipPath2)" stroke="none"/>
    </g>
    <g text-rendering="geometricPrecision" stroke-miterlimit="1.45" shape-rendering="geometricPrecision" transform="matrix(1,0,0,1,139,8)" stroke-linecap="butt">
      <rect fill="none" x="343" width="30" height="1" y="957" clip-path="url(#clipPath2)"/>
    </g>
    <g fill="rgb(255,204,0)" text-rendering="geometricPrecision" shape-rendering="geometricPrecision" transform="matrix(1,0,0,1,139,8)" stroke="rgb(255,204,0)">
      <rect x="343" width="30" height="1" y="987" clip-path="url(#clipPath2)" stroke="none"/>
    </g>
    <g text-rendering="geometricPrecision" stroke-miterlimit="1.45" shape-rendering="geometricPrecision" transform="matrix(1,0,0,1,139,8)" stroke-linecap="butt">
      <rect fill="none" x="343" width="30" height="1" y="987" clip-path="url(#clipPath2)"/>
    </g>
    <g fill="rgb(255,204,0)" text-rendering="geometricPrecision" shape-rendering="geometricPrecision" transform="matrix(1,0,0,1,139,8)" stroke="rgb(255,204,0)">
      <rect x="343" width="30" height="1" y="1017" clip-path="url(#clipPath2)" stroke="none"/>
    </g>
    <g text-rendering="geometricPrecision" stroke-miterlimit="1.45" shape-rendering="geometricPrecision" transform="matrix(1,0,0,1,139,8)" stroke-linecap="butt">
      <rect fill="none" x="343" width="30" height="1" y="1017" clip-path="url(#clipPath2)"/>
    </g>
    <g fill="rgb(255,204,0)" text-rendering="geometricPrecision" shape-rendering="geometricPrecision" transform="matrix(1,0,0,1,139,8)" stroke="rgb(255,204,0)">
      <rect x="357.5" width="1" height="30" y="928" clip-path="url(#clipPath2)" stroke="none"/>
    </g>
    <g text-rendering="geometricPrecision" stroke-miterlimit="1.45" shape-rendering="geometricPrecision" transform="matrix(1,0,0,1,139,8)" stroke-linecap="butt">
      <rect fill="none" x="357.5" width="1" height="30" y="928" clip-path="url(#clipPath2)"/>
    </g>
    <g fill="rgb(255,204,0)" text-rendering="geometricPrecision" shape-rendering="geometricPrecision" transform="matrix(1,0,0,1,139,8)" stroke="rgb(255,204,0)">
      <rect x="357.5" width="1" height="30" y="958" clip-path="url(#clipPath2)" stroke="none"/>
    </g>
    <g text-rendering="geometricPrecision" stroke-miterlimit="1.45" shape-rendering="geometricPrecision" transform="matrix(1,0,0,1,139,8)" stroke-linecap="butt">
      <rect fill="none" x="357.5" width="1" height="30" y="958" clip-path="url(#clipPath2)"/>
    </g>
    <g fill="rgb(255,204,0)" text-rendering="geometricPrecision" shape-rendering="geometricPrecision" transform="matrix(1,0,0,1,139,8)" stroke="rgb(255,204,0)">
      <rect x="357.5" width="1" height="30" y="988" clip-path="url(#clipPath2)" stroke="none"/>
    </g>
    <g text-rendering="geometricPrecision" stroke-miterlimit="1.45" shape-rendering="geometricPrecision" transform="matrix(1,0,0,1,139,8)" stroke-linecap="butt">
      <rect fill="none" x="357.5" width="1" height="30" y="988" clip-path="url(#clipPath2)"/>
      <path fill="none" d="M760.5 221.5 L760.5 133.4293 L286.028 137.8302 L286.028 702 L349.5 702" clip-path="url(#clipPath2)"/>
      <path d="M357.5 702 L345.5 697 L348.5 702 L345.5 707 Z" clip-path="url(#clipPath2)" stroke="none"/>
      <text x="259.9422" xml:space="preserve" y="111.9858" clip-path="url(#clipPath2)" font-family="sans-serif" stroke="none">Offset of</text>
      <path fill="none" d="M903 221.5 L903 45.9989 L196.2505 45.9989 L196.2505 912 L349.5 912" clip-path="url(#clipPath2)"/>
      <path d="M357.5 912 L345.5 907 L348.5 912 L345.5 917 Z" clip-path="url(#clipPath2)" stroke="none"/>
      <text x="170.4429" xml:space="preserve" y="20.1532" clip-path="url(#clipPath2)" font-family="sans-serif" stroke="none">Offset of</text>
      <path fill="none" d="M1028.5 357 L1121.0995 357 L1121.0995 717 L1020.5 717" clip-path="url(#clipPath2)"/>
      <path d="M1020.5 357 L1032.5 362 L1029.5 357 L1032.5 352 Z" clip-path="url(#clipPath2)" stroke="none"/>
      <text x="1050.1908" xml:space="preserve" y="331.1543" clip-path="url(#clipPath2)" font-family="sans-serif" stroke="none">Corresponds to</text>
      <path fill="none" d="M1028.5 476 L1186.6691 476 L1186.6691 777.5 L1020.5 777.5" clip-path="url(#clipPath2)"/>
      <path d="M1020.5 476 L1032.5 481 L1029.5 476 L1032.5 471 Z" clip-path="url(#clipPath2)" stroke="none"/>
      <text x="1140.9103" xml:space="preserve" y="450.1543" clip-path="url(#clipPath2)" font-family="sans-serif" stroke="none">Corresponds to</text>
      <path fill="none" d="M1028.5 627 L1258.8431 627 L1258.8431 867.5 L1020.5 867.5" clip-path="url(#clipPath2)"/>
      <path d="M1020.5 627 L1032.5 632 L1029.5 627 L1032.5 622 Z" clip-path="url(#clipPath2)" stroke="none"/>
      <text x="1213.0844" xml:space="preserve" y="601.1543" clip-path="url(#clipPath2)" font-family="sans-serif" stroke="none">Corresponds to</text>
      <path fill="none" d="M349.5 356 L108.9237 356 L108.9237 943 L108.9237 943 L357.5 943" clip-path="url(#clipPath2)"/>
      <path d="M357.5 356 L345.5 351 L348.5 356 L345.5 361 Z" clip-path="url(#clipPath2)" stroke="none"/>
      <text x="63.1649" xml:space="preserve" y="330.1543" clip-path="url(#clipPath2)" font-family="sans-serif" stroke="none">Corresponds to</text>
      <path fill="none" d="M349.5 475 L17.4081 475 L17.4081 973 L357.5 973" clip-path="url(#clipPath2)"/>
      <path d="M357.5 475 L345.5 470 L348.5 475 L345.5 480 Z" clip-path="url(#clipPath2)" stroke="none"/>
      <text x="-28.3507" xml:space="preserve" y="449.1543" clip-path="url(#clipPath2)" font-family="sans-serif" stroke="none">Corresponds to</text>
      <path fill="none" d="M349.5 626 L-76.1102 626 L-76.1102 1003 L357.5 1003" clip-path="url(#clipPath2)"/>
      <path d="M357.5 626 L345.5 621 L348.5 626 L345.5 631 Z" clip-path="url(#clipPath2)" stroke="none"/>
      <text x="-121.8689" xml:space="preserve" y="600.1543" clip-path="url(#clipPath2)" font-family="sans-serif" stroke="none">Corresponds to</text>
    </g>
  </g>
</svg>
