<?xml version="1.0" encoding="UTF-8"?><svg xmlns="http://www.w3.org/2000/svg" xmlns:xlink="http://www.w3.org/1999/xlink" fill-opacity="1" color-rendering="auto" color-interpolation="auto" text-rendering="auto" stroke="black" stroke-linecap="square" width="907" stroke-miterlimit="10" shape-rendering="auto" stroke-opacity="1" fill="black" stroke-dasharray="none" font-weight="normal" stroke-width="1" height="1289" font-family="'Dialog'" font-style="normal" stroke-linejoin="miter" font-size="12px" stroke-dashoffset="0" image-rendering="auto">
  <!--Generated by ySVG 2.6-->
  <defs id="genericDefs"/>
  <g>
    <defs id="defs1">
      <clipPath clipPathUnits="userSpaceOnUse" id="clipPath1">
        <path d="M0 0 L907 0 L907 1289 L0 1289 L0 0 Z"/>
      </clipPath>
      <clipPath clipPathUnits="userSpaceOnUse" id="clipPath2">
        <path d="M385 161 L1292 161 L1292 1450 L385 1450 L385 161 Z"/>
      </clipPath>
    </defs>
    <g text-rendering="geometricPrecision" stroke-miterlimit="1.45" shape-rendering="geometricPrecision" transform="matrix(1,0,0,1,-385,-161)" stroke-linecap="butt">
      <rect fill="none" x="403" width="143" height="30" y="267" clip-path="url(#clipPath2)"/>
    </g>
    <g text-rendering="geometricPrecision" stroke-miterlimit="1.45" shape-rendering="geometricPrecision" font-family="sans-serif" transform="matrix(1,0,0,1,-385,-161)" stroke-linecap="butt">
      <text x="433.8154" xml:space="preserve" y="286.1543" clip-path="url(#clipPath2)" stroke="none">MARC header</text>
      <rect fill="none" x="546" width="143" height="30" y="267" clip-path="url(#clipPath2)"/>
      <text x="571.2959" xml:space="preserve" y="286.1543" clip-path="url(#clipPath2)" stroke="none">Number of tiles</text>
      <rect fill="none" x="689" width="143" height="30" y="267" clip-path="url(#clipPath2)"/>
      <text x="698.1797" xml:space="preserve" y="286.1543" clip-path="url(#clipPath2)" stroke="none">Tile properties offset</text>
      <rect fill="none" x="832" width="143" height="30" y="267" clip-path="url(#clipPath2)"/>
      <text x="871.8652" xml:space="preserve" y="286.1543" clip-path="url(#clipPath2)" stroke="none">Map offset</text>
    </g>
    <g fill="rgb(255,204,0)" text-rendering="geometricPrecision" shape-rendering="geometricPrecision" transform="matrix(1,0,0,1,-385,-161)" stroke="rgb(255,204,0)">
      <rect x="402" width="1" height="30" y="200" clip-path="url(#clipPath2)" stroke="none"/>
    </g>
    <g text-rendering="geometricPrecision" stroke-miterlimit="1.45" shape-rendering="geometricPrecision" transform="matrix(1,0,0,1,-385,-161)" stroke-linecap="butt">
      <rect fill="none" x="402" width="1" height="30" y="200" clip-path="url(#clipPath2)"/>
    </g>
    <g fill="rgb(255,204,0)" text-rendering="geometricPrecision" shape-rendering="geometricPrecision" transform="matrix(1,0,0,1,-385,-161)" stroke="rgb(255,204,0)">
      <rect x="546" width="1" height="30" y="200" clip-path="url(#clipPath2)" stroke="none"/>
    </g>
    <g text-rendering="geometricPrecision" stroke-miterlimit="1.45" shape-rendering="geometricPrecision" transform="matrix(1,0,0,1,-385,-161)" stroke-linecap="butt">
      <rect fill="none" x="546" width="1" height="30" y="200" clip-path="url(#clipPath2)"/>
      <rect fill="none" x="403" width="143" height="30" y="897" clip-path="url(#clipPath2)"/>
      <text x="435.1045" xml:space="preserve" y="916.1543" clip-path="url(#clipPath2)" font-family="sans-serif" stroke="none">MAPF header</text>
      <rect fill="none" x="546" width="143" height="30" y="897" clip-path="url(#clipPath2)"/>
      <text x="586.3926" xml:space="preserve" y="916.1543" clip-path="url(#clipPath2)" font-family="sans-serif" stroke="none">Map width</text>
      <rect fill="none" x="689" width="143" height="30" y="897" clip-path="url(#clipPath2)"/>
      <text x="726.8057" xml:space="preserve" y="916.1543" clip-path="url(#clipPath2)" font-family="sans-serif" stroke="none">Map height</text>
      <rect fill="none" x="832" width="143" height="30" y="897" clip-path="url(#clipPath2)"/>
      <text x="877.2969" xml:space="preserve" y="916.1543" clip-path="url(#clipPath2)" font-family="sans-serif" stroke="none">Map size</text>
      <rect fill="none" x="403" width="572" height="120" y="297" clip-path="url(#clipPath2)"/>
      <text x="657.0371" xml:space="preserve" y="361.1543" clip-path="url(#clipPath2)" font-family="sans-serif" stroke="none">Tile path 1</text>
      <rect fill="none" x="403" width="572" height="120" y="417" clip-path="url(#clipPath2)"/>
      <text x="657.0371" xml:space="preserve" y="481.1543" clip-path="url(#clipPath2)" font-family="sans-serif" stroke="none">Tile path 2</text>
      <rect fill="none" x="403" width="572" height="30" y="537" clip-path="url(#clipPath2)"/>
      <text x="683.2783" xml:space="preserve" y="556.1543" clip-path="url(#clipPath2)" font-family="sans-serif" stroke="none">...</text>
      <rect fill="none" x="403" width="572" height="120" y="567" clip-path="url(#clipPath2)"/>
      <text x="656.3662" xml:space="preserve" y="631.1543" clip-path="url(#clipPath2)" font-family="sans-serif" stroke="none">Tile path N</text>
      <rect fill="none" x="403" width="143" height="30" y="687" clip-path="url(#clipPath2)"/>
      <text x="420.8955" xml:space="preserve" y="706.1543" clip-path="url(#clipPath2)" font-family="sans-serif" stroke="none">Properties header</text>
      <rect fill="none" x="546" width="143" height="30" y="687" clip-path="url(#clipPath2)"/>
      <text x="566.6904" xml:space="preserve" y="706.1543" clip-path="url(#clipPath2)" font-family="sans-serif" stroke="none">Numer of frames</text>
      <rect fill="none" x="689" width="143" height="30" y="687" clip-path="url(#clipPath2)"/>
      <text x="738.3076" xml:space="preserve" y="706.1543" clip-path="url(#clipPath2)" font-family="sans-serif" stroke="none">Solidity</text>
      <rect fill="none" x="832" width="143" height="30" y="687" clip-path="url(#clipPath2)"/>
      <text x="866.9551" xml:space="preserve" y="706.1543" clip-path="url(#clipPath2)" font-family="sans-serif" stroke="none">Destructible</text>
      <rect fill="none" x="403" width="143" height="30" y="717" clip-path="url(#clipPath2)"/>
      <text x="443.1289" xml:space="preserve" y="736.1543" clip-path="url(#clipPath2)" font-family="sans-serif" stroke="none">Collectible</text>
      <rect fill="none" x="546" width="143" height="30" y="717" clip-path="url(#clipPath2)"/>
      <text x="587.0312" xml:space="preserve" y="736.1543" clip-path="url(#clipPath2)" font-family="sans-serif" stroke="none">Generator</text>
      <rect fill="none" x="689" width="286" height="30" y="717" clip-path="url(#clipPath2)"/>
      <text x="807.8096" xml:space="preserve" y="736.1543" clip-path="url(#clipPath2)" font-family="sans-serif" stroke="none">Padding</text>
      <rect fill="none" x="403" width="143" height="30" y="747" clip-path="url(#clipPath2)"/>
      <text x="420.8955" xml:space="preserve" y="766.1543" clip-path="url(#clipPath2)" font-family="sans-serif" stroke="none">Properties header</text>
      <rect fill="none" x="546" width="143" height="30" y="747" clip-path="url(#clipPath2)"/>
      <text x="566.6904" xml:space="preserve" y="766.1543" clip-path="url(#clipPath2)" font-family="sans-serif" stroke="none">Numer of frames</text>
      <rect fill="none" x="689" width="143" height="30" y="747" clip-path="url(#clipPath2)"/>
      <text x="738.3076" xml:space="preserve" y="766.1543" clip-path="url(#clipPath2)" font-family="sans-serif" stroke="none">Solidity</text>
      <rect fill="none" x="832" width="143" height="30" y="747" clip-path="url(#clipPath2)"/>
      <text x="866.9551" xml:space="preserve" y="766.1543" clip-path="url(#clipPath2)" font-family="sans-serif" stroke="none">Destructible</text>
      <rect fill="none" x="403" width="143" height="30" y="777" clip-path="url(#clipPath2)"/>
      <text x="443.1289" xml:space="preserve" y="796.1543" clip-path="url(#clipPath2)" font-family="sans-serif" stroke="none">Collectible</text>
      <rect fill="none" x="546" width="143" height="30" y="777" clip-path="url(#clipPath2)"/>
      <text x="587.0312" xml:space="preserve" y="796.1543" clip-path="url(#clipPath2)" font-family="sans-serif" stroke="none">Generator</text>
      <rect fill="none" x="689" width="286" height="30" y="777" clip-path="url(#clipPath2)"/>
      <text x="807.8096" xml:space="preserve" y="796.1543" clip-path="url(#clipPath2)" font-family="sans-serif" stroke="none">Padding</text>
      <rect fill="none" x="403" width="572" height="30" y="807" clip-path="url(#clipPath2)"/>
      <text x="683.2783" xml:space="preserve" y="826.1543" clip-path="url(#clipPath2)" font-family="sans-serif" stroke="none">...</text>
      <rect fill="none" x="403" width="143" height="30" y="837" clip-path="url(#clipPath2)"/>
      <text x="420.8955" xml:space="preserve" y="856.1543" clip-path="url(#clipPath2)" font-family="sans-serif" stroke="none">Properties header</text>
      <rect fill="none" x="546" width="143" height="30" y="837" clip-path="url(#clipPath2)"/>
      <text x="566.6904" xml:space="preserve" y="856.1543" clip-path="url(#clipPath2)" font-family="sans-serif" stroke="none">Numer of frames</text>
      <rect fill="none" x="689" width="143" height="30" y="837" clip-path="url(#clipPath2)"/>
      <text x="738.3076" xml:space="preserve" y="856.1543" clip-path="url(#clipPath2)" font-family="sans-serif" stroke="none">Solidity</text>
      <rect fill="none" x="832" width="143" height="30" y="837" clip-path="url(#clipPath2)"/>
      <text x="866.9551" xml:space="preserve" y="856.1543" clip-path="url(#clipPath2)" font-family="sans-serif" stroke="none">Destructible</text>
      <rect fill="none" x="403" width="143" height="30" y="867" clip-path="url(#clipPath2)"/>
      <text x="443.1289" xml:space="preserve" y="886.1543" clip-path="url(#clipPath2)" font-family="sans-serif" stroke="none">Collectible</text>
      <rect fill="none" x="546" width="143" height="30" y="867" clip-path="url(#clipPath2)"/>
      <text x="587.0312" xml:space="preserve" y="886.1543" clip-path="url(#clipPath2)" font-family="sans-serif" stroke="none">Generator</text>
      <rect fill="none" x="689" width="286" height="30" y="867" clip-path="url(#clipPath2)"/>
      <text x="807.8096" xml:space="preserve" y="886.1543" clip-path="url(#clipPath2)" font-family="sans-serif" stroke="none">Padding</text>
      <rect fill="none" x="403" width="572" height="507.3333" y="927" clip-path="url(#clipPath2)"/>
      <text x="660.916" xml:space="preserve" y="1184.8209" clip-path="url(#clipPath2)" font-family="sans-serif" stroke="none">Map data</text>
    </g>
    <g fill="rgb(255,204,0)" text-rendering="geometricPrecision" shape-rendering="geometricPrecision" transform="matrix(1,0,0,1,-385,-161)" stroke="rgb(255,204,0)">
      <rect x="1005" width="30" height="1" y="296" clip-path="url(#clipPath2)" stroke="none"/>
    </g>
    <g text-rendering="geometricPrecision" stroke-miterlimit="1.45" shape-rendering="geometricPrecision" transform="matrix(1,0,0,1,-385,-161)" stroke-linecap="butt">
      <rect fill="none" x="1005" width="30" height="1" y="296" clip-path="url(#clipPath2)"/>
    </g>
    <g fill="rgb(255,204,0)" text-rendering="geometricPrecision" shape-rendering="geometricPrecision" transform="matrix(1,0,0,1,-385,-161)" stroke="rgb(255,204,0)">
      <rect x="1005" width="30" height="1" y="417" clip-path="url(#clipPath2)" stroke="none"/>
    </g>
    <g text-rendering="geometricPrecision" stroke-miterlimit="1.45" shape-rendering="geometricPrecision" transform="matrix(1,0,0,1,-385,-161)" stroke-linecap="butt">
      <rect fill="none" x="1005" width="30" height="1" y="417" clip-path="url(#clipPath2)"/>
    </g>
    <g fill="rgb(255,204,0)" text-rendering="geometricPrecision" shape-rendering="geometricPrecision" transform="matrix(1,0,0,1,-385,-161)" stroke="rgb(255,204,0)">
      <rect x="1005" width="30" height="1" y="686" clip-path="url(#clipPath2)" stroke="none"/>
    </g>
    <g text-rendering="geometricPrecision" stroke-miterlimit="1.45" shape-rendering="geometricPrecision" transform="matrix(1,0,0,1,-385,-161)" stroke-linecap="butt">
      <rect fill="none" x="1005" width="30" height="1" y="686" clip-path="url(#clipPath2)"/>
    </g>
    <g fill="rgb(255,204,0)" text-rendering="geometricPrecision" shape-rendering="geometricPrecision" transform="matrix(1,0,0,1,-385,-161)" stroke="rgb(255,204,0)">
      <rect x="1005" width="30" height="1" y="747" clip-path="url(#clipPath2)" stroke="none"/>
    </g>
    <g text-rendering="geometricPrecision" stroke-miterlimit="1.45" shape-rendering="geometricPrecision" transform="matrix(1,0,0,1,-385,-161)" stroke-linecap="butt">
      <rect fill="none" x="1005" width="30" height="1" y="747" clip-path="url(#clipPath2)"/>
    </g>
    <g fill="rgb(255,204,0)" text-rendering="geometricPrecision" shape-rendering="geometricPrecision" transform="matrix(1,0,0,1,-385,-161)" stroke="rgb(255,204,0)">
      <rect x="1005" width="30" height="1" y="265" clip-path="url(#clipPath2)" stroke="none"/>
    </g>
    <g text-rendering="geometricPrecision" stroke-miterlimit="1.45" shape-rendering="geometricPrecision" transform="matrix(1,0,0,1,-385,-161)" stroke-linecap="butt">
      <rect fill="none" x="1005" width="30" height="1" y="265" clip-path="url(#clipPath2)"/>
    </g>
    <g fill="rgb(255,204,0)" text-rendering="geometricPrecision" shape-rendering="geometricPrecision" transform="matrix(1,0,0,1,-385,-161)" stroke="rgb(255,204,0)">
      <rect x="1005" width="30" height="1" y="896" clip-path="url(#clipPath2)" stroke="none"/>
    </g>
    <g text-rendering="geometricPrecision" stroke-miterlimit="1.45" shape-rendering="geometricPrecision" transform="matrix(1,0,0,1,-385,-161)" stroke-linecap="butt">
      <rect fill="none" x="1005" width="30" height="1" y="896" clip-path="url(#clipPath2)"/>
    </g>
    <g fill="rgb(255,204,0)" text-rendering="geometricPrecision" shape-rendering="geometricPrecision" transform="matrix(1,0,0,1,-385,-161)" stroke="rgb(255,204,0)">
      <rect x="1005" width="30" height="1" y="927" clip-path="url(#clipPath2)" stroke="none"/>
    </g>
    <g text-rendering="geometricPrecision" stroke-miterlimit="1.45" shape-rendering="geometricPrecision" transform="matrix(1,0,0,1,-385,-161)" stroke-linecap="butt">
      <rect fill="none" x="1005" width="30" height="1" y="927" clip-path="url(#clipPath2)"/>
    </g>
    <g fill="rgb(255,204,0)" text-rendering="geometricPrecision" shape-rendering="geometricPrecision" transform="matrix(1,0,0,1,-385,-161)" stroke="rgb(255,204,0)">
      <rect x="1125.25" width="30" height="1" y="296" clip-path="url(#clipPath2)" stroke="none"/>
    </g>
    <g text-rendering="geometricPrecision" stroke-miterlimit="1.45" shape-rendering="geometricPrecision" transform="matrix(1,0,0,1,-385,-161)" stroke-linecap="butt">
      <rect fill="none" x="1125.25" width="30" height="1" y="296" clip-path="url(#clipPath2)"/>
    </g>
    <g fill="rgb(255,204,0)" text-rendering="geometricPrecision" shape-rendering="geometricPrecision" transform="matrix(1,0,0,1,-385,-161)" stroke="rgb(255,204,0)">
      <rect x="1125.25" width="30" height="1" y="686" clip-path="url(#clipPath2)" stroke="none"/>
    </g>
    <g text-rendering="geometricPrecision" stroke-miterlimit="1.45" shape-rendering="geometricPrecision" transform="matrix(1,0,0,1,-385,-161)" stroke-linecap="butt">
      <rect fill="none" x="1125.25" width="30" height="1" y="686" clip-path="url(#clipPath2)"/>
    </g>
    <g fill="rgb(255,204,0)" text-rendering="geometricPrecision" shape-rendering="geometricPrecision" transform="matrix(1,0,0,1,-385,-161)" stroke="rgb(255,204,0)">
      <rect x="1125.25" width="30" height="1" y="927" clip-path="url(#clipPath2)" stroke="none"/>
    </g>
    <g text-rendering="geometricPrecision" stroke-miterlimit="1.45" shape-rendering="geometricPrecision" transform="matrix(1,0,0,1,-385,-161)" stroke-linecap="butt">
      <rect fill="none" x="1125.25" width="30" height="1" y="927" clip-path="url(#clipPath2)"/>
      <path fill="none" d="M403 215 L546 215" clip-path="url(#clipPath2)"/>
      <text x="452.2461" xml:space="preserve" y="189.1543" clip-path="url(#clipPath2)" font-family="sans-serif" stroke="none">4 bytes</text>
      <path fill="none" d="M1020 297 L1020 417" clip-path="url(#clipPath2)"/>
      <text x="1023.9287" xml:space="preserve" y="361.1543" clip-path="url(#clipPath2)" font-family="sans-serif" stroke="none">64 bytes</text>
      <path fill="none" d="M1020 687 L1020 747" clip-path="url(#clipPath2)"/>
      <text x="1023.9287" xml:space="preserve" y="721.1543" clip-path="url(#clipPath2)" font-family="sans-serif" stroke="none">32 bytes</text>
      <path fill="none" d="M1020 266 L1020 296" clip-path="url(#clipPath2)"/>
      <text x="1023.9287" xml:space="preserve" y="286.1699" clip-path="url(#clipPath2)" font-family="sans-serif" stroke="none">16 bytes</text>
      <path fill="none" d="M1020 897 L1020 927" clip-path="url(#clipPath2)"/>
      <text x="1023.9287" xml:space="preserve" y="917.1699" clip-path="url(#clipPath2)" font-family="sans-serif" stroke="none">16 bytes</text>
      <path fill="none" d="M1140.25 297 L1140.25 686" clip-path="url(#clipPath2)"/>
      <text x="1152.25" xml:space="preserve" y="495.6543" clip-path="url(#clipPath2)" font-family="sans-serif" stroke="none">64 x Number of tiles</text>
      <path fill="none" d="M1140.25 927 L1140.25 687" clip-path="url(#clipPath2)"/>
      <text x="1152.1743" xml:space="preserve" y="811.1543" clip-path="url(#clipPath2)" font-family="sans-serif" stroke="none">32 x Number of tiles</text>
    </g>
  </g>
</svg>
