<?xml version="1.0" encoding="UTF-8"?><svg xmlns="http://www.w3.org/2000/svg" xmlns:xlink="http://www.w3.org/1999/xlink" fill-opacity="1" color-rendering="auto" color-interpolation="auto" text-rendering="auto" stroke="black" stroke-linecap="square" width="362" stroke-miterlimit="10" shape-rendering="auto" stroke-opacity="1" fill="black" stroke-dasharray="none" font-weight="normal" stroke-width="1" height="1348" font-family="'Dialog'" font-style="normal" stroke-linejoin="miter" font-size="12px" stroke-dashoffset="0" image-rendering="auto">
  <!--Generated by ySVG 2.6-->
  <defs id="genericDefs"/>
  <g>
    <defs id="defs1">
      <clipPath clipPathUnits="userSpaceOnUse" id="clipPath1">
        <path d="M0 0 L362 0 L362 1348 L0 1348 L0 0 Z"/>
      </clipPath>
      <clipPath clipPathUnits="userSpaceOnUse" id="clipPath2">
        <path d="M337 231 L699 231 L699 1579 L337 1579 L337 231 Z"/>
      </clipPath>
    </defs>
    <g text-rendering="geometricPrecision" stroke-miterlimit="1.45" shape-rendering="geometricPrecision" transform="matrix(1,0,0,1,-337,-231)" stroke-linecap="butt">
      <rect x="364" y="407" clip-path="url(#clipPath2)" fill="none" width="84" rx="4" ry="4" height="30"/>
    </g>
    <g text-rendering="geometricPrecision" stroke-miterlimit="1.45" shape-rendering="geometricPrecision" font-family="sans-serif" transform="matrix(1,0,0,1,-337,-231)" stroke-linecap="butt">
      <text x="368.333" xml:space="preserve" y="426.1543" clip-path="url(#clipPath2)" stroke="none">MARC + 0x4</text>
      <rect x="364" y="729" clip-path="url(#clipPath2)" fill="none" width="84" rx="4" ry="4" height="30"/>
      <text x="364.5156" xml:space="preserve" y="748.1543" clip-path="url(#clipPath2)" stroke="none">MARC + 0x10</text>
      <rect x="364" y="568" clip-path="url(#clipPath2)" fill="none" width="84" rx="4" ry="4" height="30"/>
      <text x="368.333" xml:space="preserve" y="587.1543" clip-path="url(#clipPath2)" stroke="none">MARC + 0x8</text>
      <rect x="364" y="890" clip-path="url(#clipPath2)" fill="none" width="84" rx="4" ry="4" height="30"/>
      <text x="368.333" xml:space="preserve" y="909.1543" clip-path="url(#clipPath2)" stroke="none">MARC + 0x8</text>
      <rect x="588" y="729" clip-path="url(#clipPath2)" fill="none" width="84" rx="4" ry="4" height="30"/>
      <text x="600.6357" xml:space="preserve" y="748.1543" clip-path="url(#clipPath2)" stroke="none">Tile paths</text>
      <rect x="352.8" y="1051" clip-path="url(#clipPath2)" fill="none" width="106.4" rx="4" ry="4" height="30"/>
      <text x="359.8105" xml:space="preserve" y="1070.1543" clip-path="url(#clipPath2)" stroke="none">MARC + PATHS</text>
      <rect x="576.8" y="1051" clip-path="url(#clipPath2)" fill="none" width="106.4" rx="4" ry="4" height="30"/>
      <text x="586.6523" xml:space="preserve" y="1070.1543" clip-path="url(#clipPath2)" stroke="none">Tile properties</text>
      <rect x="364" y="1212" clip-path="url(#clipPath2)" fill="none" width="84" rx="4" ry="4" height="30"/>
      <text x="367.9609" xml:space="preserve" y="1231.1543" clip-path="url(#clipPath2)" stroke="none">MARC + 0xC</text>
      <rect x="352.8" y="1373" clip-path="url(#clipPath2)" fill="none" width="106.4" rx="4" ry="4" height="30"/>
      <text x="365.8047" xml:space="preserve" y="1392.1543" clip-path="url(#clipPath2)" stroke="none">MAPF + 0x10</text>
      <path fill="none" d="M407.9789 437.0066 L409.3095 441.8788 L411.6544 448.0009 L414.5632 453.8155 L418.0016 459.2896 L421.9356 464.3899 L426.331 469.0833 L431.1534 473.3365 L436.3689 477.1165 L441.9431 480.3901 L447.842 483.1241 L454.0313 485.2852 L460.4769 486.8403 L467.1445 487.7563 L474 488 L480.8452 487.5518 L487.4825 486.4373 L493.8788 484.6904 L500.0009 482.3456 L505.8155 479.4368 L511.2896 475.9983 L516.3899 472.0643 L521.0833 467.669 L525.3365 462.8465 L529.1166 457.6311 L532.3901 452.0568 L535.124 446.158 L537.2852 439.9687 L538.8403 433.5231 L539.7563 426.8555 L540 420 L539.5518 413.1548 L538.4373 406.5175 L536.6904 400.1212 L534.3455 393.9991 L531.4368 388.1845 L527.9983 382.7104 L524.0643 377.6101 L519.669 372.9167 L514.8466 368.6634 L509.6311 364.8834 L504.0568 361.6099 L498.158 358.8759 L491.9687 356.7148 L485.5231 355.1596 L478.8555 354.2437 L472 354 L465.1548 354.4482 L458.5175 355.5627 L452.1212 357.3095 L445.9991 359.6544 L440.1845 362.5632 L434.7104 366.0016 L429.6101 369.9356 L424.9167 374.331 L420.6634 379.1534 L416.8834 384.3689 L413.6099 389.9431 L410.8759 395.842 L409.673 399.2871 L409.6495 399.3843" clip-path="url(#clipPath2)"/>
      <path d="M407.4911 407.0876 L415.5433 396.8817 L409.9193 398.4214 L405.9142 394.1836 Z" clip-path="url(#clipPath2)" stroke="none"/>
      <text x="477.4219" xml:space="preserve" y="424.7728" clip-path="url(#clipPath2)" stroke="none">update</text>
      <path fill="none" d="M406 276 L406 398.9937" clip-path="url(#clipPath2)"/>
      <path d="M406 406.9937 L411 394.9937 L406 397.9937 L401 394.9937 Z" clip-path="url(#clipPath2)" stroke="none"/>
      <text x="362.3564" xml:space="preserve" y="345.6543" clip-path="url(#clipPath2)" stroke="none">read</text>
      <path fill="none" d="M406 436.9758 L406 559.9911" clip-path="url(#clipPath2)"/>
      <path d="M406 567.9911 L411 555.9911 L406 558.9911 L401 555.9911 Z" clip-path="url(#clipPath2)" stroke="none"/>
      <text x="362.3564" xml:space="preserve" y="506.6543" clip-path="url(#clipPath2)" stroke="none">read</text>
      <path fill="none" d="M406 597.9758 L406 720.9911" clip-path="url(#clipPath2)"/>
      <path d="M406 728.9911 L411 716.9911 L406 719.9911 L401 716.9911 Z" clip-path="url(#clipPath2)" stroke="none"/>
      <text x="354.8594" xml:space="preserve" y="667.6543" clip-path="url(#clipPath2)" stroke="none">update</text>
      <path fill="none" d="M406 758.9758 L406 881.9911" clip-path="url(#clipPath2)"/>
      <path d="M406 889.9911 L411 877.9911 L406 880.9911 L401 877.9911 Z" clip-path="url(#clipPath2)" stroke="none"/>
      <text x="354.8594" xml:space="preserve" y="828.6543" clip-path="url(#clipPath2)" stroke="none">update</text>
      <path fill="none" d="M422.3242 728.9866 L434 719.5 L448 709.875 L462 702 L476 695.875 L490 691.5 L504 688.875 L518 688 L532 688.875 L546 691.5 L560 695.875 L574 702 L588 709.875 L602 719.5 L607.4669 723.9418" clip-path="url(#clipPath2)"/>
      <path d="M613.6758 728.9866 L607.5154 717.5389 L606.6907 723.3112 L601.2095 725.3 Z" clip-path="url(#clipPath2)" stroke="none"/>
      <text x="510.2758" xml:space="preserve" y="665.3215" clip-path="url(#clipPath2)" stroke="none">update</text>
      <path fill="none" d="M613.6758 759.0134 L602 768.5 L588 778.125 L574 786 L560 792.125 L546 796.5 L532 799.125 L518 800 L504 799.125 L490 796.5 L476 792.125 L462 786 L448 778.125 L434 768.5 L428.5331 764.0582" clip-path="url(#clipPath2)"/>
      <path d="M422.3242 759.0134 L428.4846 770.4611 L429.3093 764.6888 L434.7906 762.7 Z" clip-path="url(#clipPath2)" stroke="none"/>
      <text x="510.2758" xml:space="preserve" y="830.9871" clip-path="url(#clipPath2)" stroke="none">update</text>
      <path fill="none" d="M406 919.9758 L406 1042.9912" clip-path="url(#clipPath2)"/>
      <path d="M406 1050.9912 L411 1038.9912 L406 1041.9912 L401 1038.9912 Z" clip-path="url(#clipPath2)" stroke="none"/>
      <text x="354.8594" xml:space="preserve" y="989.6543" clip-path="url(#clipPath2)" stroke="none">update</text>
      <path fill="none" d="M422.3242 1050.9866 L434 1041.5 L448 1031.875 L462 1024 L476 1017.875 L490 1013.5 L504 1010.875 L518 1010 L532 1010.875 L546 1013.5 L560 1017.875 L574 1024 L588 1031.875 L602 1041.5 L607.4669 1045.9418" clip-path="url(#clipPath2)"/>
      <path d="M613.6757 1050.9866 L607.5154 1039.5388 L606.6907 1045.3112 L601.2094 1047.2999 Z" clip-path="url(#clipPath2)" stroke="none"/>
      <text x="510.2758" xml:space="preserve" y="987.3215" clip-path="url(#clipPath2)" stroke="none">update</text>
      <path fill="none" d="M613.6758 1081.0134 L602 1090.5 L588 1100.125 L574 1108 L560 1114.125 L546 1118.5 L532 1121.125 L518 1122 L504 1121.125 L490 1118.5 L476 1114.125 L462 1108 L448 1100.125 L434 1090.5 L428.5331 1086.0582" clip-path="url(#clipPath2)"/>
      <path d="M422.3242 1081.0134 L428.4846 1092.4612 L429.3092 1086.6888 L434.7906 1084.7001 Z" clip-path="url(#clipPath2)" stroke="none"/>
      <text x="510.2758" xml:space="preserve" y="1152.9871" clip-path="url(#clipPath2)" stroke="none">update</text>
      <path fill="none" d="M406 1080.9758 L406 1203.9912" clip-path="url(#clipPath2)"/>
      <path d="M406 1211.9912 L411 1199.9912 L406 1202.9912 L401 1199.9912 Z" clip-path="url(#clipPath2)" stroke="none"/>
      <text x="354.8594" xml:space="preserve" y="1150.6543" clip-path="url(#clipPath2)" stroke="none">update</text>
      <path fill="none" d="M406 1241.9758 L406 1364.9912" clip-path="url(#clipPath2)"/>
      <path d="M406 1372.9912 L411 1360.9912 L406 1363.9912 L401 1360.9912 Z" clip-path="url(#clipPath2)" stroke="none"/>
      <text x="354.8594" xml:space="preserve" y="1311.6543" clip-path="url(#clipPath2)" stroke="none">update</text>
      <path fill="none" d="M406 1402.9758 L406 1526" clip-path="url(#clipPath2)"/>
      <path d="M406 1534 L411 1522 L406 1525 L401 1522 Z" clip-path="url(#clipPath2)" stroke="none"/>
    </g>
  </g>
</svg>
