<?xml version="1.0" encoding="UTF-8"?><svg xmlns="http://www.w3.org/2000/svg" xmlns:xlink="http://www.w3.org/1999/xlink" fill-opacity="1" color-rendering="auto" color-interpolation="auto" text-rendering="auto" stroke="black" stroke-linecap="square" width="606" stroke-miterlimit="10" shape-rendering="auto" stroke-opacity="1" fill="black" stroke-dasharray="none" font-weight="normal" stroke-width="1" height="1080" font-family="'Dialog'" font-style="normal" stroke-linejoin="miter" font-size="12px" stroke-dashoffset="0" image-rendering="auto">
  <!--Generated by ySVG 2.6-->
  <defs id="genericDefs"/>
  <g>
    <defs id="defs1">
      <clipPath clipPathUnits="userSpaceOnUse" id="clipPath1">
        <path d="M0 0 L606 0 L606 1080 L0 1080 L0 0 Z"/>
      </clipPath>
      <clipPath clipPathUnits="userSpaceOnUse" id="clipPath2">
        <path d="M104 231 L710 231 L710 1311 L104 1311 L104 231 Z"/>
      </clipPath>
    </defs>
    <g text-rendering="geometricPrecision" stroke-miterlimit="1.45" shape-rendering="geometricPrecision" transform="matrix(1,0,0,1,-104,-231)" stroke-linecap="butt">
      <rect x="364" y="407" clip-path="url(#clipPath2)" fill="none" width="84" rx="4" ry="4" height="30"/>
    </g>
    <g text-rendering="geometricPrecision" stroke-miterlimit="1.45" shape-rendering="geometricPrecision" font-family="sans-serif" transform="matrix(1,0,0,1,-104,-231)" stroke-linecap="butt">
      <text x="367.9609" xml:space="preserve" y="426.1543" clip-path="url(#clipPath2)" stroke="none">MARC + 0xC</text>
      <rect x="364" y="568" clip-path="url(#clipPath2)" fill="none" width="84" rx="4" ry="4" height="30"/>
      <text x="369.6221" xml:space="preserve" y="587.1543" clip-path="url(#clipPath2)" stroke="none">MAPF + 0x4</text>
      <rect x="364" y="729" clip-path="url(#clipPath2)" fill="none" width="84" rx="4" ry="4" height="30"/>
      <text x="369.6221" xml:space="preserve" y="748.1543" clip-path="url(#clipPath2)" stroke="none">MAPF + 0x8</text>
      <rect x="364" y="890" clip-path="url(#clipPath2)" fill="none" width="84" rx="4" ry="4" height="30"/>
      <text x="369.25" xml:space="preserve" y="909.1543" clip-path="url(#clipPath2)" stroke="none">MAPF + 0xC</text>
      <path fill="none" d="M364 1092.998 L406.0005 1051 L448.001 1092.998 L406.0005 1135.0016 Z" clip-path="url(#clipPath2)" fill-rule="evenodd"/>
      <rect x="558" y="1078" clip-path="url(#clipPath2)" fill="none" width="84" rx="4" ry="4" height="30"/>
      <text x="580.9775" xml:space="preserve" y="1097.1543" clip-path="url(#clipPath2)" stroke="none">Shrink</text>
      <rect x="558" y="890" clip-path="url(#clipPath2)" fill="none" width="84" rx="4" ry="4" height="30"/>
      <text x="576.4072" xml:space="preserve" y="909.1543" clip-path="url(#clipPath2)" stroke="none">Nothing</text>
      <rect x="170" y="890" clip-path="url(#clipPath2)" fill="none" width="84" rx="4" ry="4" height="30"/>
      <text x="197.7295" xml:space="preserve" y="909.1543" clip-path="url(#clipPath2)" stroke="none">0xFF</text>
      <rect x="170" y="1078" clip-path="url(#clipPath2)" fill="none" width="84" rx="4" ry="4" height="30"/>
      <text x="189.5615" xml:space="preserve" y="1097.1543" clip-path="url(#clipPath2)" stroke="none">Expand</text>
      <path fill="none" d="M406 276 L406 398.9937" clip-path="url(#clipPath2)"/>
      <path d="M406 406.9937 L411 394.9937 L406 397.9937 L401 394.9937 Z" clip-path="url(#clipPath2)" stroke="none"/>
      <text x="362.3564" xml:space="preserve" y="345.6543" clip-path="url(#clipPath2)" stroke="none">read</text>
      <path fill="none" d="M406 436.9758 L406 559.9911" clip-path="url(#clipPath2)"/>
      <path d="M406 567.9911 L411 555.9911 L406 558.9911 L401 555.9911 Z" clip-path="url(#clipPath2)" stroke="none"/>
      <text x="362.3564" xml:space="preserve" y="506.6543" clip-path="url(#clipPath2)" stroke="none">read</text>
      <path fill="none" d="M406 597.9758 L406 720.9911" clip-path="url(#clipPath2)"/>
      <path d="M406 728.9911 L411 716.9911 L406 719.9911 L401 716.9911 Z" clip-path="url(#clipPath2)" stroke="none"/>
      <text x="362.3564" xml:space="preserve" y="667.6543" clip-path="url(#clipPath2)" stroke="none">read</text>
      <path fill="none" d="M407.0602 759.0099 L408.1201 764.0586 L410.0974 770.3152 L412.6566 776.2983 L415.7652 781.9727 L419.3913 787.3033 L423.5025 792.2548 L428.0668 796.7922 L433.052 800.8801 L438.4259 804.4835 L444.1563 807.5671 L450.2111 810.0957 L456.5581 812.0342 L463.1651 813.3474 L470 814 L476.8658 813.9608 L483.5638 813.2434 L490.0586 811.8799 L496.3152 809.9025 L502.2982 807.3434 L507.9727 804.2347 L513.3033 800.6087 L518.2548 796.4974 L522.7922 791.9332 L526.8801 786.948 L530.4835 781.5741 L533.5671 775.8436 L536.0957 769.7889 L538.0342 763.4419 L539.3474 756.8348 L540 750 L539.9608 743.1342 L539.2434 736.4362 L537.8799 729.9413 L535.9025 723.6848 L533.3434 717.7017 L530.2347 712.0273 L526.6087 706.6967 L522.4974 701.7452 L517.9332 697.2078 L512.948 693.1199 L507.5741 689.5165 L501.8437 686.4329 L495.7889 683.9043 L489.4419 681.9658 L482.8349 680.6526 L476 680 L469.1341 680.0392 L462.4362 680.7566 L455.9414 682.1201 L449.6848 684.0975 L443.7017 686.6566 L438.0273 689.7652 L432.6967 693.3912 L427.7451 697.5025 L423.2078 702.0668 L419.1199 707.052 L415.5165 712.4259 L412.4329 718.1563 L411.0627 721.4373 L411.0335 721.533" clip-path="url(#clipPath2)"/>
      <path d="M408.4101 729.0906 L417.0687 719.3938 L411.3615 720.5883 L407.6217 716.1145 Z" clip-path="url(#clipPath2)" stroke="none"/>
      <text x="477.4219" xml:space="preserve" y="752.2989" clip-path="url(#clipPath2)" stroke="none">update</text>
      <path fill="none" d="M406 758.9758 L406 881.9911" clip-path="url(#clipPath2)"/>
      <path d="M406 889.9911 L411 877.9911 L406 880.9911 L401 877.9911 Z" clip-path="url(#clipPath2)" stroke="none"/>
      <text x="354.8594" xml:space="preserve" y="828.6543" clip-path="url(#clipPath2)" stroke="none">update</text>
      <path fill="none" d="M406 920.0088 L406 1042.9769" clip-path="url(#clipPath2)"/>
      <path d="M406 1050.9769 L411 1038.9769 L406 1041.9769 L401 1038.9769 Z" clip-path="url(#clipPath2)" stroke="none"/>
      <text x="348.2588" xml:space="preserve" y="989.6543" clip-path="url(#clipPath2)" stroke="none">condition</text>
      <path fill="none" d="M448.0112 1093 L550.0324 1093" clip-path="url(#clipPath2)"/>
      <path d="M558.0324 1093 L546.0324 1088 L549.0324 1093 L546.0324 1098 Z" clip-path="url(#clipPath2)" stroke="none"/>
      <text x="497.3301" xml:space="preserve" y="1127.1543" clip-path="url(#clipPath2)" stroke="none">shrink</text>
      <path fill="none" d="M586.3552 1078.0142 L579.4375 1069.5 L571.3594 1057.75 L564.75 1046 L559.6094 1034.25 L555.9375 1022.5 L553.7344 1010.75 L553 999 L553.7344 987.25 L555.9375 975.5 L559.6094 963.75 L564.75 952 L571.3594 940.25 L579.4375 928.5 L581.3105 926.1948" clip-path="url(#clipPath2)"/>
      <path d="M586.3552 919.9858 L574.9075 926.1462 L580.6799 926.9709 L582.6687 932.4521 Z" clip-path="url(#clipPath2)" stroke="none"/>
      <text x="511.0822" xml:space="preserve" y="989.7379" clip-path="url(#clipPath2)" stroke="none">write</text>
      <path fill="none" d="M613.6448 919.9858 L620.5625 928.5 L628.6406 940.25 L635.25 952 L640.3906 963.75 L644.0625 975.5 L646.2656 987.25 L647 999 L646.2656 1010.75 L644.0625 1022.5 L640.3906 1034.25 L635.25 1046 L628.6406 1057.75 L620.5625 1069.5 L618.6895 1071.8053" clip-path="url(#clipPath2)"/>
      <path d="M613.6448 1078.0142 L625.0925 1071.8538 L619.3201 1071.0292 L617.3314 1065.5479 Z" clip-path="url(#clipPath2)" stroke="none"/>
      <text x="655.493" xml:space="preserve" y="989.7379" clip-path="url(#clipPath2)" stroke="none">shrink</text>
      <path fill="none" d="M225.6447 919.9858 L232.5625 928.5 L240.6406 940.25 L247.25 952 L252.3906 963.75 L256.0625 975.5 L258.2656 987.25 L259 999 L258.2656 1010.75 L256.0625 1022.5 L252.3906 1034.25 L247.25 1046 L240.6406 1057.75 L232.5625 1069.5 L230.6895 1071.8053" clip-path="url(#clipPath2)"/>
      <path d="M225.6447 1078.0142 L237.0924 1071.8538 L231.3201 1071.0292 L229.3313 1065.5479 Z" clip-path="url(#clipPath2)" stroke="none"/>
      <text x="263.494" xml:space="preserve" y="989.7379" clip-path="url(#clipPath2)" stroke="none">expand</text>
      <path fill="none" d="M363.9888 1093 L261.9676 1093" clip-path="url(#clipPath2)"/>
      <path d="M253.9676 1093 L265.9676 1098 L262.9676 1093 L265.9676 1088 Z" clip-path="url(#clipPath2)" stroke="none"/>
      <text x="271.9917" xml:space="preserve" y="1127.1543" clip-path="url(#clipPath2)" stroke="none">expand</text>
      <path fill="none" d="M198.3553 1078.0142 L191.4375 1069.5 L183.3594 1057.75 L176.75 1046 L171.6094 1034.25 L167.9375 1022.5 L165.7344 1010.75 L165 999 L165.7344 987.25 L167.9375 975.5 L171.6094 963.75 L176.75 952 L183.3594 940.25 L191.4375 928.5 L193.3105 926.1948" clip-path="url(#clipPath2)"/>
      <path d="M198.3553 919.9858 L186.9076 926.1462 L192.6799 926.9709 L194.6687 932.4521 Z" clip-path="url(#clipPath2)" stroke="none"/>
      <text x="121.8633" xml:space="preserve" y="989.6412" clip-path="url(#clipPath2)" stroke="none">Write</text>
      <path fill="none" d="M227.4641 1107.9858 L385.255 1260.8966" clip-path="url(#clipPath2)"/>
      <path d="M391 1266.4639 L385.8621 1254.5223 L384.5369 1260.2007 L378.903 1261.7036 Z" clip-path="url(#clipPath2)" stroke="none"/>
      <path fill="none" d="M584.5359 1107.9858 L426.745 1260.8966" clip-path="url(#clipPath2)"/>
      <path d="M421 1266.4639 L433.097 1261.7036 L427.4631 1260.2007 L426.1379 1254.5223 Z" clip-path="url(#clipPath2)" stroke="none"/>
    </g>
  </g>
</svg>
