<?xml version="1.0" encoding="UTF-8"?><svg xmlns="http://www.w3.org/2000/svg" xmlns:xlink="http://www.w3.org/1999/xlink" fill-opacity="1" color-rendering="auto" color-interpolation="auto" text-rendering="auto" stroke="black" stroke-linecap="square" width="606" stroke-miterlimit="10" shape-rendering="auto" stroke-opacity="1" fill="black" stroke-dasharray="none" font-weight="normal" stroke-width="1" height="1080" font-family="'Dialog'" font-style="normal" stroke-linejoin="miter" font-size="12px" stroke-dashoffset="0" image-rendering="auto">
  <!--Generated by ySVG 2.6-->
  <defs id="genericDefs"/>
  <g>
    <defs id="defs1">
      <clipPath clipPathUnits="userSpaceOnUse" id="clipPath1">
        <path d="M0 0 L606 0 L606 1080 L0 1080 L0 0 Z"/>
      </clipPath>
      <clipPath clipPathUnits="userSpaceOnUse" id="clipPath2">
        <path d="M104 231 L710 231 L710 1311 L104 1311 L104 231 Z"/>
      </clipPath>
    </defs>
    <g text-rendering="geometricPrecision" stroke-miterlimit="1.45" shape-rendering="geometricPrecision" transform="matrix(1,0,0,1,-104,-231)" stroke-linecap="butt">
      <rect x="364" y="407" clip-path="url(#clipPath2)" fill="none" width="84" rx="4" ry="4" height="30"/>
    </g>
    <g text-rendering="geometricPrecision" stroke-miterlimit="1.45" shape-rendering="geometricPrecision" font-family="sans-serif" transform="matrix(1,0,0,1,-104,-231)" stroke-linecap="butt">
      <text x="367.9609" xml:space="preserve" y="426.1543" clip-path="url(#clipPath2)" stroke="none">MARC + 0xC</text>
      <rect x="364" y="568" clip-path="url(#clipPath2)" fill="none" width="84" rx="4" ry="4" height="30"/>
      <text x="369.6221" xml:space="preserve" y="587.1543" clip-path="url(#clipPath2)" stroke="none">MAPF + 0x4</text>
      <rect x="364" y="729" clip-path="url(#clipPath2)" fill="none" width="84" rx="4" ry="4" height="30"/>
      <text x="369.6221" xml:space="preserve" y="748.1543" clip-path="url(#clipPath2)" stroke="none">MAPF + 0x8</text>
      <rect x="364" y="890" clip-path="url(#clipPath2)" fill="none" width="84" rx="4" ry="4" height="30"/>
      <text x="369.25" xml:space="preserve" y="909.1543" clip-path="url(#clipPath2)" stroke="none">MAPF + 0xC</text>
      <path fill="none" d="M364 1093 L406 1051 L448 1093 L406 1135 Z" clip-path="url(#clipPath2)" fill-rule="evenodd"/>
      <rect x="558" y="1078" clip-path="url(#clipPath2)" fill="none" width="84" rx="4" ry="4" height="30"/>
      <text x="580.9775" xml:space="preserve" y="1097.1543" clip-path="url(#clipPath2)" stroke="none">Shrink</text>
      <rect x="558" y="890" clip-path="url(#clipPath2)" fill="none" width="84" rx="4" ry="4" height="30"/>
      <text x="576.4072" xml:space="preserve" y="909.1543" clip-path="url(#clipPath2)" stroke="none">Nothing</text>
      <rect x="170" y="890" clip-path="url(#clipPath2)" fill="none" width="84" rx="4" ry="4" height="30"/>
      <text x="197.7295" xml:space="preserve" y="909.1543" clip-path="url(#clipPath2)" stroke="none">0xFF</text>
      <rect x="170" y="1078" clip-path="url(#clipPath2)" fill="none" width="84" rx="4" ry="4" height="30"/>
      <text x="189.5615" xml:space="preserve" y="1097.1543" clip-path="url(#clipPath2)" stroke="none">Expand</text>
      <path fill="none" d="M406 276 L406 398.9937" clip-path="url(#clipPath2)"/>
      <path d="M406 406.9937 L411 394.9937 L406 397.9937 L401 394.9937 Z" clip-path="url(#clipPath2)" stroke="none"/>
      <text x="362.3564" xml:space="preserve" y="345.6543" clip-path="url(#clipPath2)" stroke="none">read</text>
      <path fill="none" d="M406 436.9758 L406 559.9911" clip-path="url(#clipPath2)"/>
      <path d="M406 567.9911 L411 555.9911 L406 558.9911 L401 555.9911 Z" clip-path="url(#clipPath2)" stroke="none"/>
      <text x="362.3564" xml:space="preserve" y="506.6543" clip-path="url(#clipPath2)" stroke="none">read</text>
      <path fill="none" d="M407.7417 597.9827 L409.0122 602.9238 L411.2652 609.0794 L414.0865 614.9362 L417.4425 620.4603 L421.2995 625.6182 L425.6238 630.3762 L430.3818 634.7004 L435.5397 638.5574 L441.0638 641.9135 L446.9206 644.7348 L453.0763 646.9878 L459.4972 648.6388 L466.1496 649.6541 L473 650 L479.8504 649.6541 L486.5028 648.6388 L492.9237 646.9878 L499.0794 644.7348 L504.9362 641.9135 L510.4603 638.5574 L515.6182 634.7004 L520.3762 630.3762 L524.7004 625.6182 L528.5574 620.4603 L531.9135 614.9362 L534.7348 609.0794 L536.9878 602.9238 L538.6388 596.5028 L539.6541 589.8503 L540 583 L539.6541 576.1497 L538.6388 569.4972 L536.9878 563.0762 L534.7348 556.9206 L531.9135 551.0638 L528.5574 545.5397 L524.7004 540.3818 L520.3762 535.6238 L515.6182 531.2996 L510.4603 527.4426 L504.9362 524.0865 L499.0794 521.2652 L492.9237 519.0122 L486.5028 517.3612 L479.8504 516.3459 L473 516 L466.1496 516.3459 L459.4972 517.3612 L453.0763 519.0122 L446.9206 521.2652 L441.0638 524.0865 L435.5397 527.4426 L430.3818 531.2996 L425.6238 535.6238 L421.2995 540.3818 L417.4425 545.5397 L414.0865 551.0638 L411.2652 556.9206 L410.0114 560.3461 L409.9865 560.4429" clip-path="url(#clipPath2)"/>
      <path d="M407.7133 568.1132 L415.9171 558.0286 L410.2707 559.4841 L406.3293 555.1871 Z" clip-path="url(#clipPath2)" stroke="none"/>
      <text x="477.4219" xml:space="preserve" y="587.1543" clip-path="url(#clipPath2)" stroke="none">update</text>
      <path fill="none" d="M406 597.9758 L406 720.9911" clip-path="url(#clipPath2)"/>
      <path d="M406 728.9911 L411 716.9911 L406 719.9911 L401 716.9911 Z" clip-path="url(#clipPath2)" stroke="none"/>
      <text x="362.3564" xml:space="preserve" y="667.6543" clip-path="url(#clipPath2)" stroke="none">read</text>
      <path fill="none" d="M406 758.9758 L406 881.9911" clip-path="url(#clipPath2)"/>
      <path d="M406 889.9911 L411 877.9911 L406 880.9911 L401 877.9911 Z" clip-path="url(#clipPath2)" stroke="none"/>
      <text x="354.8594" xml:space="preserve" y="828.6543" clip-path="url(#clipPath2)" stroke="none">update</text>
      <path fill="none" d="M406 920.0088 L406 1042.9769" clip-path="url(#clipPath2)"/>
      <path d="M406 1050.9769 L411 1038.9769 L406 1041.9769 L401 1038.9769 Z" clip-path="url(#clipPath2)" stroke="none"/>
      <text x="348.2588" xml:space="preserve" y="989.6543" clip-path="url(#clipPath2)" stroke="none">condition</text>
      <path fill="none" d="M448.0112 1093 L550.0324 1093" clip-path="url(#clipPath2)"/>
      <path d="M558.0324 1093 L546.0324 1088 L549.0324 1093 L546.0324 1098 Z" clip-path="url(#clipPath2)" stroke="none"/>
      <text x="497.3301" xml:space="preserve" y="1127.1543" clip-path="url(#clipPath2)" stroke="none">shrink</text>
      <path fill="none" d="M586.3552 1078.0142 L579.4375 1069.5 L571.3594 1057.75 L564.75 1046 L559.6094 1034.25 L555.9375 1022.5 L553.7344 1010.75 L553 999 L553.7344 987.25 L555.9375 975.5 L559.6094 963.75 L564.75 952 L571.3594 940.25 L579.4375 928.5 L581.3105 926.1948" clip-path="url(#clipPath2)"/>
      <path d="M586.3552 919.9858 L574.9075 926.1462 L580.6799 926.9709 L582.6687 932.4521 Z" clip-path="url(#clipPath2)" stroke="none"/>
      <text x="511.0822" xml:space="preserve" y="989.7379" clip-path="url(#clipPath2)" stroke="none">write</text>
      <path fill="none" d="M613.6448 919.9858 L620.5625 928.5 L628.6406 940.25 L635.25 952 L640.3906 963.75 L644.0625 975.5 L646.2656 987.25 L647 999 L646.2656 1010.75 L644.0625 1022.5 L640.3906 1034.25 L635.25 1046 L628.6406 1057.75 L620.5625 1069.5 L618.6895 1071.8053" clip-path="url(#clipPath2)"/>
      <path d="M613.6448 1078.0142 L625.0925 1071.8538 L619.3201 1071.0292 L617.3314 1065.5479 Z" clip-path="url(#clipPath2)" stroke="none"/>
      <text x="655.493" xml:space="preserve" y="989.7379" clip-path="url(#clipPath2)" stroke="none">shrink</text>
      <path fill="none" d="M363.9888 1093 L261.9676 1093" clip-path="url(#clipPath2)"/>
      <path d="M253.9676 1093 L265.9676 1098 L262.9676 1093 L265.9676 1088 Z" clip-path="url(#clipPath2)" stroke="none"/>
      <text x="271.9917" xml:space="preserve" y="1127.1543" clip-path="url(#clipPath2)" stroke="none">expand</text>
      <path fill="none" d="M225.6447 919.9858 L232.5625 928.5 L240.6406 940.25 L247.25 952 L252.3906 963.75 L256.0625 975.5 L258.2656 987.25 L259 999 L258.2656 1010.75 L256.0625 1022.5 L252.3906 1034.25 L247.25 1046 L240.6406 1057.75 L232.5625 1069.5 L230.6895 1071.8053" clip-path="url(#clipPath2)"/>
      <path d="M225.6447 1078.0142 L237.0924 1071.8538 L231.3201 1071.0292 L229.3313 1065.5479 Z" clip-path="url(#clipPath2)" stroke="none"/>
      <text x="263.494" xml:space="preserve" y="989.7379" clip-path="url(#clipPath2)" stroke="none">expand</text>
      <path fill="none" d="M198.3553 1078.0142 L191.4375 1069.5 L183.3594 1057.75 L176.75 1046 L171.6094 1034.25 L167.9375 1022.5 L165.7344 1010.75 L165 999 L165.7344 987.25 L167.9375 975.5 L171.6094 963.75 L176.75 952 L183.3594 940.25 L191.4375 928.5 L193.3105 926.1948" clip-path="url(#clipPath2)"/>
      <path d="M198.3553 919.9858 L186.9076 926.1462 L192.6799 926.9709 L194.6687 932.4521 Z" clip-path="url(#clipPath2)" stroke="none"/>
      <text x="121.8633" xml:space="preserve" y="989.6412" clip-path="url(#clipPath2)" stroke="none">Write</text>
      <path fill="none" d="M227.4641 1107.9858 L385.255 1260.8966" clip-path="url(#clipPath2)"/>
      <path d="M391 1266.4639 L385.8621 1254.5223 L384.5369 1260.2007 L378.903 1261.7036 Z" clip-path="url(#clipPath2)" stroke="none"/>
      <path fill="none" d="M584.5359 1107.9858 L426.745 1260.8966" clip-path="url(#clipPath2)"/>
      <path d="M421 1266.4639 L433.097 1261.7036 L427.4631 1260.2007 L426.1379 1254.5223 Z" clip-path="url(#clipPath2)" stroke="none"/>
    </g>
  </g>
</svg>
