<?xml version="1.0" encoding="UTF-8"?><svg xmlns="http://www.w3.org/2000/svg" xmlns:xlink="http://www.w3.org/1999/xlink" fill-opacity="1" color-rendering="auto" color-interpolation="auto" text-rendering="auto" stroke="black" stroke-linecap="square" width="696" stroke-miterlimit="10" shape-rendering="auto" stroke-opacity="1" fill="black" stroke-dasharray="none" font-weight="normal" stroke-width="1" height="84" font-family="'Dialog'" font-style="normal" stroke-linejoin="miter" font-size="12px" stroke-dashoffset="0" image-rendering="auto">
  <!--Generated by ySVG 2.6-->
  <defs id="genericDefs"/>
  <g>
    <defs id="defs1">
      <clipPath clipPathUnits="userSpaceOnUse" id="clipPath1">
        <path d="M0 0 L696 0 L696 84 L0 84 L0 0 Z"/>
      </clipPath>
      <clipPath clipPathUnits="userSpaceOnUse" id="clipPath2">
        <path d="M173 392 L869 392 L869 476 L173 476 L173 392 Z"/>
      </clipPath>
    </defs>
    <g text-rendering="geometricPrecision" stroke-miterlimit="1.45" shape-rendering="geometricPrecision" transform="matrix(1,0,0,1,-173,-392)" stroke-linecap="butt">
      <rect x="364" y="407" clip-path="url(#clipPath2)" fill="none" width="84" rx="4" ry="4" height="30"/>
    </g>
    <g text-rendering="geometricPrecision" stroke-miterlimit="1.45" shape-rendering="geometricPrecision" font-family="sans-serif" transform="matrix(1,0,0,1,-173,-392)" stroke-linecap="butt">
      <text x="367.9609" xml:space="preserve" y="426.1543" clip-path="url(#clipPath2)" stroke="none">MARC + 0xC</text>
      <rect x="594" y="407" clip-path="url(#clipPath2)" fill="none" width="84" rx="4" ry="4" height="30"/>
      <text x="599.6221" xml:space="preserve" y="426.1543" clip-path="url(#clipPath2)" stroke="none">MAPF + 0x8</text>
      <path fill="none" d="M218 422 L356.0029 422" clip-path="url(#clipPath2)"/>
      <path d="M364.0029 422 L352.0029 417 L355.0029 422 L352.0029 427 Z" clip-path="url(#clipPath2)" stroke="none"/>
      <text x="277.3564" xml:space="preserve" y="456.1543" clip-path="url(#clipPath2)" stroke="none">read</text>
      <path fill="none" d="M447.9739 422 L585.9971 422" clip-path="url(#clipPath2)"/>
      <path d="M593.9971 422 L581.9971 417 L584.9971 422 L581.9971 427 Z" clip-path="url(#clipPath2)" stroke="none"/>
      <text x="507.3564" xml:space="preserve" y="456.1543" clip-path="url(#clipPath2)" stroke="none">read</text>
      <path fill="none" d="M677.9778 422 L816 422" clip-path="url(#clipPath2)"/>
      <path d="M824 422 L812 417 L815 422 L812 427 Z" clip-path="url(#clipPath2)" stroke="none"/>
      <text x="729.6953" xml:space="preserve" y="456.1543" clip-path="url(#clipPath2)" stroke="none">display</text>
    </g>
  </g>
</svg>
